<svg width="40" height="39" viewBox="0 0 40 39" fill="none" xmlns="http://www.w3.org/2000/svg">
<path d="M20.0159 0C9.25587 0 0.515869 8.74 0.515869 19.5C0.515869 30.26 9.25587 39 20.0159 39C30.7759 39 39.5159 30.26 39.5159 19.5C39.5159 8.74 30.7759 0 20.0159 0ZM24.4758 35.38C24.4758 34.56 24.4758 32.84 24.4758 30.78C24.4758 29.1 23.8959 28 23.2559 27.44C27.2559 27 31.4758 25.48 31.4758 18.56C31.4758 16.6 30.7758 15 29.6158 13.74C29.8158 13.28 30.4358 11.44 29.4558 8.96002C29.4558 8.96002 27.9359 8.48001 24.4958 10.82C23.0558 10.42 21.5159 10.22 19.9958 10.2C18.4558 10.22 16.9158 10.42 15.4958 10.82C12.0558 8.48001 10.5359 8.96002 10.5359 8.96002C9.55589 11.44 10.1758 13.28 10.3558 13.74C9.21583 15 8.51587 16.6 8.51587 18.56C8.51587 25.46 12.7158 27 16.7158 27.46C16.1958 27.9 15.7359 28.7 15.5759 29.86C14.5359 30.32 11.9358 31.12 10.3358 28.36C10.3358 28.36 9.37593 26.64 7.57593 26.52C7.57593 26.52 5.81581 26.5 7.45581 27.6C7.45581 27.6 8.63581 28.16 9.45581 30.24C9.45581 30.24 10.4959 33.46 15.5159 32.36C15.5159 33.6 15.5159 34.74 15.5159 35.38C8.57587 33.42 3.47583 27.06 3.47583 19.5C3.47583 10.4 10.8758 3 19.9758 3C29.0758 3 36.4758 10.4 36.4758 19.5C36.4758 27.06 31.3759 33.42 24.4359 35.38H24.4758Z" fill="#B7B7B7"/>
</svg>
