<svg width="40" height="39" viewBox="0 0 40 39" fill="none" xmlns="http://www.w3.org/2000/svg">
<path d="M39.3389 11.9876C39.2189 9.4476 38.7189 6.18761 35.9989 3.46761C33.2789 0.747607 30.0189 0.24761 27.4789 0.12761C24.4589 -0.0323899 15.4789 -0.0523899 12.4789 0.12761C9.93893 0.24761 6.67891 0.727607 3.95891 3.46761C1.23891 6.18761 0.738887 9.4476 0.618887 11.9876C0.438887 15.0076 0.438887 23.9876 0.618887 26.9876C0.738887 29.5276 1.21891 32.7876 3.95891 35.5276C6.69891 38.2476 9.95893 38.7476 12.4789 38.8676C13.9989 38.9476 16.9989 38.9876 19.9989 38.9876C22.9989 38.9876 25.9789 38.9476 27.4789 38.8676C30.0189 38.7476 33.2789 38.2676 36.0189 35.5276C38.7389 32.8076 39.2389 29.5476 39.3589 27.0076C39.5389 23.9876 39.5389 15.0276 39.3589 12.0076L39.3389 11.9876ZM36.3389 26.8276C36.1789 29.8476 35.4589 31.8076 33.8589 33.3876C32.2789 34.9676 30.3189 35.7076 27.2989 35.8476C24.3589 36.0076 15.5789 36.0076 12.5989 35.8476C9.59893 35.6876 7.63893 34.9476 6.03893 33.3676C4.45893 31.7876 3.71891 29.8276 3.57891 26.8076C3.41891 23.9276 3.41891 15.0076 3.57891 12.1076C3.73891 9.08759 4.45893 7.12759 6.03893 5.54759C7.61893 3.96759 9.59893 3.2276 12.5989 3.0876C14.0789 3.0076 16.9989 2.96761 19.9389 2.96761C22.8789 2.96761 25.8189 3.0076 27.2989 3.0876C30.3189 3.2476 32.2789 3.96758 33.8589 5.56758C35.4389 7.14758 36.1789 9.10761 36.3189 12.1276C36.4789 15.0876 36.4789 23.8676 36.3189 26.8276H36.3389ZM19.9589 9.9876C14.7189 9.9876 10.4589 14.2476 10.4589 19.4876C10.4589 24.7276 14.7189 28.9876 19.9589 28.9876C25.1989 28.9876 29.4589 24.7276 29.4589 19.4876C29.4589 14.2476 25.1989 9.9876 19.9589 9.9876ZM19.9589 25.9876C16.3789 25.9876 13.4589 23.0676 13.4589 19.4876C13.4589 15.9076 16.3789 12.9876 19.9589 12.9876C23.5389 12.9876 26.4589 15.9076 26.4589 19.4876C26.4589 23.0676 23.5389 25.9876 19.9589 25.9876ZM32.9989 8.4876C32.9989 9.5876 32.0989 10.4876 30.9989 10.4876C29.8989 10.4876 28.9989 9.5876 28.9989 8.4876C28.9989 7.3876 29.8789 6.4876 30.9989 6.4876C32.0989 6.4876 32.9989 7.3876 32.9989 8.4876Z" fill="#B7B7B7"/>
</svg>
