<svg width="40" height="39" viewBox="0 0 40 39" fill="none" xmlns="http://www.w3.org/2000/svg">
<path d="M10.0959 13.262H2.51589C1.69589 13.262 1.01589 13.942 1.01589 14.762V37.502C1.01589 38.322 1.69589 39.002 2.51589 39.002H10.0959C10.9159 39.002 11.5959 38.322 11.5959 37.502V14.762C11.5959 13.942 10.9159 13.262 10.0959 13.262ZM8.59587 36.002H4.01589V16.262H8.59587V36.002ZM6.59587 0.00200224C4.99587 -0.0379978 3.51588 0.521997 2.35588 1.622C1.21588 2.702 0.555899 4.18201 0.495899 5.76201C0.455899 7.34201 1.01589 8.842 2.11589 10.002C3.19589 11.142 4.67588 11.802 6.25588 11.862C6.29588 11.862 6.31588 11.862 6.35588 11.862C9.61588 11.862 12.2959 9.222 12.3559 5.942C12.3559 2.722 9.83587 0.121991 6.59587 0.0219913V0.00200224ZM6.35588 8.842H6.3359C5.55589 8.822 4.83588 8.50202 4.31588 7.92202C3.77588 7.36202 3.49589 6.622 3.51589 5.842C3.53589 5.062 3.8559 4.34199 4.4359 3.80199C4.9959 3.26199 5.71589 3.002 6.51589 3.002C8.11589 3.042 9.35588 4.322 9.35588 5.902C9.33588 7.542 7.99588 8.842 6.35588 8.842ZM39.4159 23.762C39.4159 15.842 34.2559 13.022 29.4759 13.022C27.5559 12.942 25.6559 13.502 24.0759 14.522C23.9559 13.802 23.3359 13.262 22.5959 13.262H15.2759C14.4559 13.262 13.7759 13.942 13.7759 14.762V37.502C13.7759 38.322 14.4559 39.002 15.2759 39.002H22.8559C23.6759 39.002 24.3559 38.322 24.3559 37.502V25.522C24.3559 25.522 24.3559 25.322 24.3559 25.222C24.2959 24.442 24.5559 23.702 25.0759 23.122C25.5759 22.542 26.2959 22.182 26.9559 22.142C27.5559 22.142 28.9359 22.142 28.9359 25.522V37.502C28.9359 38.322 29.6159 39.002 30.4359 39.002H38.0159C38.4159 39.002 38.7959 38.842 39.0759 38.562C39.3559 38.282 39.5159 37.902 39.5159 37.502L39.4159 23.762ZM31.9359 36.002V25.522C31.9359 19.782 28.4759 19.142 26.8559 19.142C25.2759 19.242 23.8559 19.962 22.8159 21.142C21.7759 22.322 21.2759 23.842 21.3559 25.302C21.3559 25.482 21.3559 25.642 21.3559 25.682V35.982H16.7759V16.242H21.0959V18.022C21.0959 18.682 21.5359 19.262 22.1759 19.462C22.8159 19.662 23.4959 19.402 23.8559 18.842C25.0559 17.002 27.1759 15.922 29.4159 15.982C31.5159 15.982 36.3959 16.742 36.3959 23.742L36.4759 35.982H31.9159L31.9359 36.002Z" fill="#B7B7B7"/>
</svg>
