<svg width="46" height="39" viewBox="0 0 46 39" fill="none" xmlns="http://www.w3.org/2000/svg">
<path d="M37.2673 38.5H9.57499C3.99499 38.5 0.921143 35.4324 0.921143 29.8636V9.13636C0.921143 3.56764 3.99499 0.5 9.57499 0.5H37.2673C42.8473 0.5 45.9211 3.56764 45.9211 9.13636V29.8636C45.9211 35.4324 42.8473 38.5 37.2673 38.5ZM9.57499 3.95455C5.93576 3.95455 4.38268 5.50448 4.38268 9.13636V29.8636C4.38268 33.4955 5.93576 35.0455 9.57499 35.0455H37.2673C40.9065 35.0455 42.4596 33.4955 42.4596 29.8636V9.13636C42.4596 5.50448 40.9065 3.95455 37.2673 3.95455H9.57499ZM25.7959 21.0638L37.131 12.8373C37.904 12.2777 38.0749 11.1953 37.5118 10.4238C36.951 9.65456 35.8714 9.47951 35.0937 10.0438L23.7581 18.2702C23.555 18.4176 23.2851 18.4176 23.082 18.2702L11.7463 10.0438C10.9663 9.47951 9.88899 9.65686 9.32822 10.4238C8.76514 11.1953 8.936 12.2754 9.70908 12.8373L21.0442 21.066C21.7549 21.5819 22.5881 21.8376 23.4189 21.8376C24.2497 21.8376 25.0874 21.5796 25.7959 21.0638Z" fill="white"/>
</svg>
