<svg width="90" height="34" viewBox="0 0 90 34" fill="none" xmlns="http://www.w3.org/2000/svg">
<path fill-rule="evenodd" clip-rule="evenodd" d="M89.2721 14.1263C74.0558 23.4401 61.6378 28.6367 49.5565 29.7L49.1214 29.6227L48.4245 29.497L48.4208 29.4963L48.109 29.4404C46.6677 29.1757 45.4057 28.846 44.1084 28.2543L43.83 28.1234C42.9141 27.6522 41.9916 27.1957 41.0184 26.7914L41.0068 26.7863L40.9953 26.7822L40.8276 26.7191V26.2466C42.0625 26.3489 43.2939 26.4049 44.5252 26.4145C45.8402 26.4247 47.1582 26.3821 48.4835 26.2859C50.1656 26.6165 51.9645 26.5992 53.5952 26.0298L53.6249 26.0195L53.6535 26.0066L54.3844 25.6747C54.6182 25.5803 54.8444 25.4823 55.0641 25.3802C64.6677 23.4492 74.9713 18.7885 87.4504 11.1501L89.2721 14.1263ZM2.38131 11.1471C13.8171 18.0917 23.4318 22.6626 32.4757 24.8696C32.8502 25.6729 33.2804 26.4495 33.7653 27.1911L33.7728 27.2027L33.781 27.2139L34.2813 27.9169C34.5586 28.308 34.8481 28.6697 35.1488 29.0064C24.5067 27.0644 13.5395 22.0056 0.569824 14.1294L2.38131 11.1471Z" fill="white"/>
<path fill-rule="evenodd" clip-rule="evenodd" d="M2.38131 22.6729C13.7901 15.7447 23.3865 11.179 32.4117 8.96611C33.2303 7.39942 34.2577 5.99749 35.4911 4.75214C24.7418 6.6474 13.6785 11.73 0.569824 19.6906L2.38131 22.6729ZM61.6581 10.157C61.1957 8.55528 60.4692 7.15675 59.5328 5.90305C68.5958 8.31274 78.1922 12.9117 89.2721 19.6937L87.4504 22.6699C77.7742 16.7472 69.4062 12.6148 61.6581 10.157ZM41.2544 7.53985C42.3464 7.45875 43.4358 7.41399 44.5252 7.40551C47.5813 7.3817 50.6536 7.64353 53.7946 8.19974C53.6235 7.98582 53.4533 7.77136 53.2838 7.55647C51.392 5.83 49.0663 5.73766 46.3322 5.82779C44.4814 5.96456 42.7555 6.54816 41.2544 7.53985Z" fill="white"/>
<path d="M39.0309 25.456C39.0604 25.4969 39.0854 25.5354 39.1053 25.5714C39.0754 25.5176 39.0357 25.4607 38.9832 25.3925C39.0004 25.4148 39.0164 25.4358 39.0309 25.456Z" fill="white"/>
<path fill-rule="evenodd" clip-rule="evenodd" d="M47.192 15.6341L47.1651 15.6629L47.1051 15.727L47.0015 15.8383C46.3207 16.8626 46.4174 17.9842 46.6509 19.1526C47.2024 20.1097 47.6426 20.555 48.5918 21.1072C50.1622 21.4986 51.4198 21.5097 52.9198 20.9525C55.0705 19.5704 56.1073 17.8035 56.8985 15.4366C57.0626 13.2278 56.7144 11.0222 55.9669 8.93384L55.0356 8.62443L54.8504 8.39727C54.4945 7.95969 54.1421 7.51896 53.7932 7.07601C51.6612 5.10199 49.041 5.03963 46.2917 5.13095C43.9163 5.30431 41.7293 6.17146 39.9239 7.65654C39.469 8.03065 39.0384 8.444 38.6351 8.89533C36.4481 12.0108 35.7772 15.0464 36.0927 18.8428C36.5415 21.2759 37.1811 23.3282 38.8341 25.2051L38.8365 25.2084L38.8491 25.224L38.8514 25.2268L38.9253 25.3188L38.9832 25.3925C39.0357 25.4607 39.0754 25.5176 39.1053 25.5714L39.1129 25.5852C39.1822 25.7166 39.1952 25.8382 39.1976 26.0848L39.1979 26.1628L39.1981 26.2745L40.1297 26.5842V27.2034L40.7506 27.4358L41.0854 27.5778L41.1057 27.5864C41.9298 27.9438 42.7246 28.3393 43.5261 28.7518C44.6066 29.2742 45.6507 29.6142 46.7534 29.8727C47.2542 29.9901 47.767 30.0908 48.3008 30.184L48.9977 30.3097L49.8784 30.4669L50.6878 30.6096V31.2291H51.3091L50.9986 32.7772L50.726 32.8784L50.7189 32.8811C47.8134 33.9154 44.403 33.7781 41.5756 32.568C39.5797 31.5758 37.8112 30.639 36.312 29.2065C35.7918 28.7094 35.3039 28.1526 34.8503 27.5131L34.3494 26.8091L34.3411 26.7964L34.3261 26.7734L34.3133 26.7536L34.2899 26.7173C34.2603 26.6715 34.2308 26.6254 34.2017 26.5793L34.194 26.5673L34.1421 26.4844L34.0659 26.3608C34.0219 26.289 33.9785 26.2168 33.9356 26.1443L33.9253 26.1271L33.8575 26.0111C33.8207 25.9477 33.7844 25.8841 33.7485 25.8202L33.7076 25.7472L33.6963 25.7269C33.641 25.6272 33.5863 25.527 33.5328 25.4262C33.4711 25.3103 33.4108 25.1936 33.3517 25.0763C31.4945 21.3902 30.8823 17.054 31.6056 13.0018L31.6155 12.9465L31.6277 12.8797L31.6468 12.778C32.0651 11.3209 32.6246 9.97997 33.3247 8.74983C34.2232 7.17147 35.3531 5.77542 36.7141 4.55013C37.6418 3.71488 38.6769 2.95895 39.8189 2.27879C44.9382 -0.28684 50.8277 -0.310097 55.5982 2.97326L55.8354 3.15965L55.8654 3.18317C56.8156 3.94183 57.6707 4.74419 58.4114 5.61539C59.4832 6.87616 60.3159 8.28107 60.8507 9.90624C61.0091 10.3879 61.1415 10.8889 61.2463 11.4112L61.2601 11.584L61.2722 11.756C61.5114 15.3289 60.8602 19.1603 58.5277 21.9781L58.4381 22.0726L58.2796 22.2361C57.0386 23.4988 55.7802 24.3619 54.104 25.0358L53.3652 25.3711L53.3108 25.3897L53.2555 25.4083L53.2517 25.4095L53.247 25.4111L53.1638 25.4379C51.0724 26.099 48.6576 25.811 46.6389 25.0262C44.7194 24.0806 43.5499 22.5711 42.6139 20.7006C42.0121 18.8358 41.97 16.665 42.7495 14.8559L42.7868 14.7708L42.8275 14.6818C43.5383 13.4509 44.4446 12.6658 45.7192 12.0303L45.9831 12.0141L46.0978 12.0072L46.2012 12.0014C46.3813 11.9918 46.5164 11.987 46.6509 11.987C46.8838 11.987 47.1167 12.0013 47.5825 12.0303C47.8919 12.3388 48.048 12.4958 48.1427 12.6788L48.1461 12.6853C48.1567 12.7062 48.1666 12.7275 48.1758 12.7495C48.2465 12.9192 48.2799 13.1289 48.3393 13.5014L48.3092 13.6974L48.3073 13.7093C48.147 14.614 47.7982 14.9866 47.192 15.6341Z" fill="white"/>
</svg>
