<svg width="50" height="35" viewBox="0 0 50 35" fill="none" xmlns="http://www.w3.org/2000/svg">
<path d="M0 1.89423C0 0.848615 0.848615 0 1.89423 0H47.3558C48.4014 0 49.25 0.848615 49.25 1.89423C49.25 2.93985 48.4014 3.78846 47.3558 3.78846H1.89423C0.848615 3.78846 0 2.93985 0 1.89423ZM47.3558 15.1538H1.89423C0.848615 15.1538 0 16.0025 0 17.0481C0 18.0937 0.848615 18.9423 1.89423 18.9423H47.3558C48.4014 18.9423 49.25 18.0937 49.25 17.0481C49.25 16.0025 48.4014 15.1538 47.3558 15.1538ZM47.3558 30.3077H1.89423C0.848615 30.3077 0 31.1563 0 32.2019C0 33.2475 0.848615 34.0962 1.89423 34.0962H47.3558C48.4014 34.0962 49.25 33.2475 49.25 32.2019C49.25 31.1563 48.4014 30.3077 47.3558 30.3077Z" fill="white"/>
</svg>
