<svg width="49" height="34" viewBox="0 0 49 34" fill="none" xmlns="http://www.w3.org/2000/svg">
<path d="M47.1154 3.77778H19.4744C18.4341 3.77778 17.5897 2.93156 17.5897 1.88889C17.5897 0.846222 18.4341 0 19.4744 0H47.1154C48.1557 0 49 0.846222 49 1.88889C49 2.93156 48.1557 3.77778 47.1154 3.77778ZM49 17C49 15.9573 48.1557 15.1111 47.1154 15.1111H1.88462C0.844308 15.1111 0 15.9573 0 17C0 18.0427 0.844308 18.8889 1.88462 18.8889H47.1154C48.1557 18.8889 49 18.0427 49 17ZM31.4103 32.1111C31.4103 31.0684 30.5659 30.2222 29.5256 30.2222H1.88462C0.844308 30.2222 0 31.0684 0 32.1111C0 33.1538 0.844308 34 1.88462 34H29.5256C30.5659 34 31.4103 33.1538 31.4103 32.1111Z" fill="white"/>
</svg>
