<svg width="18" height="18" viewBox="0 0 18 18" fill="none" xmlns="http://www.w3.org/2000/svg">
<path d="M17.75 1V6C17.75 6.414 17.414 6.75 17 6.75C16.586 6.75 16.25 6.414 16.25 6V2.81104L8.53003 10.531C8.38403 10.677 8.192 10.751 8 10.751C7.808 10.751 7.61597 10.678 7.46997 10.531C7.17697 10.238 7.17697 9.76297 7.46997 9.46997L15.1899 1.75H12C11.586 1.75 11.25 1.414 11.25 1C11.25 0.586 11.586 0.25 12 0.25H17C17.098 0.25 17.1951 0.270105 17.2871 0.308105C17.4701 0.384105 17.6161 0.530111 17.6931 0.714111C17.7301 0.805111 17.75 0.902 17.75 1ZM17 9.25C16.586 9.25 16.25 9.586 16.25 10V14C16.25 15.577 15.577 16.25 14 16.25H4C2.423 16.25 1.75 15.577 1.75 14V4C1.75 2.423 2.423 1.75 4 1.75H8C8.414 1.75 8.75 1.414 8.75 1C8.75 0.586 8.414 0.25 8 0.25H4C1.582 0.25 0.25 1.582 0.25 4V14C0.25 16.418 1.582 17.75 4 17.75H14C16.418 17.75 17.75 16.418 17.75 14V10C17.75 9.586 17.414 9.25 17 9.25Z" fill="white"/>
</svg>
