<svg width="108" height="70" viewBox="0 0 108 70" fill="none" xmlns="http://www.w3.org/2000/svg">
<path d="M25.7326 25.9991C19.1404 29.6614 13.4345 34.3382 7.70295 39.6229C10.512 42.1866 13.1159 44.8344 15.9798 47.1417C19.6421 50.0715 23.5242 52.6938 27.2415 55.5394C30.0834 57.7368 32.6837 60.2382 35.6282 62.2634C41.2279 66.1125 47.5747 68.0756 54.3061 68.8813C54.4892 68.9032 54.6723 68.8813 54.8518 68.9289C55.6242 69.0465 56.3623 69.3288 57.0162 69.7566C56.4375 69.8298 55.8552 69.9433 55.2729 69.9653C43.938 70.3975 33.8373 66.4715 24.2091 61.0256C15.0789 55.8617 7.5528 48.7824 0.770167 40.8828C-0.0245583 39.9599 -0.409103 39.1212 0.620011 38.0335C8.16074 30.0276 16.2362 22.648 26.3845 18.0079C28.6636 16.9421 30.6458 15.3322 32.1563 13.3201C36.8917 7.34683 42.843 3.12783 50.2995 1.13186C65.2747 -2.87839 80.5869 3.97017 88.113 18.147C90.4606 22.5711 92.3796 27.1637 92.1928 32.3019C92.1102 33.8091 91.785 35.2931 91.2297 36.6967C90.9989 37.3083 90.0357 37.6453 89.3985 38.1067C89.0323 37.5464 88.5122 37.0337 88.2998 36.4221C86.8861 32.1298 86.1463 27.497 84.0625 23.5746C75.445 7.34683 56.2068 3.69915 42.8613 14.3162C35.8553 19.905 32.1929 27.3505 33.4381 36.4184C34.8042 46.1895 40.261 53.038 49.8124 56.151C58.7045 59.0479 67.7578 55.7591 72.5847 48.0939C78.1442 39.275 73.3172 26.8231 63.2971 24.4279C58.0233 23.1644 51.7571 25.8562 50.2922 31.3461C49.4095 34.6422 50.413 38.1104 52.7423 39.5277C56.335 41.7251 59.7007 40.0404 60.1878 35.9276C60.2867 35.0633 60.8506 33.624 61.3304 33.5654C62.3872 33.509 63.4257 33.8573 64.2346 34.5396C67.6003 37.5134 66.6188 43.4391 62.4035 46.3067C57.3714 49.7236 49.8966 48.5041 45.359 43.5526C40.3709 38.0994 40.2024 29.8738 44.8573 23.4098C51.8523 13.6936 65.4139 12.8074 74.4965 20.5861C81.0044 26.1565 83.7622 33.4666 83.0224 41.9082C82.3888 49.1193 78.6056 54.6385 72.658 58.7C61.7772 66.1272 46.9924 64.6659 36.3277 56.6674C28.6661 50.9175 24.9525 43.0509 24.9196 33.5142C24.8976 31.0677 25.4286 28.6066 25.7326 25.9991Z" fill="white"/>
<path d="M78.8401 62.3623C79.4679 61.7854 80.053 61.1636 80.5907 60.5019C82.2058 58.158 83.8868 55.8434 85.2931 53.3786C86.4675 51.3332 88.0285 49.5358 89.8893 48.0866C93.1195 45.523 96.1592 42.6993 98.5837 40.5898C98.8584 37.041 99.0635 34.3382 99.3162 31.108L103.546 35.3197C104.495 36.2683 105.403 37.2571 106.399 38.1544C107.395 39.0516 107.428 39.7694 106.557 40.7802C99.177 49.3281 90.8965 56.7626 80.7518 61.9375C80.3233 62.1573 79.8985 62.377 79.459 62.5748C79.3785 62.6224 79.2429 62.5052 78.8401 62.3623Z" fill="white"/>
</svg>
