<svg width="80" height="70" viewBox="0 0 80 70" fill="none" xmlns="http://www.w3.org/2000/svg">
<path d="M40.4138 22.915C50.1432 23.2111 58.5491 26.8263 66.2355 32.3898C71.0943 35.9044 75.2662 40.1414 78.988 44.8433C79.9266 46.0276 79.9977 46.8951 79.0235 48.1624C72.933 56.1094 65.6996 62.6707 56.3877 66.579C42.7144 72.2964 29.6332 70.6917 17.1739 62.8957C10.8732 58.9488 5.69163 53.8147 1.42205 47.739C0.903902 47.0017 0.652228 46.3711 1.30362 45.5006C8.84496 35.4188 18.2161 27.8449 30.5629 24.5317C33.7607 23.6849 37.1272 23.4362 40.4138 22.915ZM40.322 60.7254C47.6501 61.0896 54.3713 54.851 54.4276 46.4688C54.4749 38.9482 48.1091 32.4816 40.9438 32.2151C32.9701 31.919 26.394 39.0725 26.2726 46.4273C26.1542 53.5897 32.3158 61.1576 40.322 60.7254ZM31.0663 30.6725C21.4287 33.7015 13.8932 39.2916 7.36156 46.4214C12.5372 53.4919 24.0431 61.3205 30.2402 62.0163C20.7861 55.5172 18.4352 39.7091 31.0663 30.6725ZM50.1461 62.2413C59.7216 59.2479 67.1534 53.6992 73.389 46.3859C65.7085 37.9415 57.1693 32.6978 49.8293 30.791C61.1399 38.4892 61.1724 54.4779 50.1461 62.2413Z" fill="white"/>
<path d="M42.0153 8.45709C42.0153 10.4794 42.0153 12.5016 42.0153 14.5269C42.0153 15.7468 41.6185 16.6942 40.2654 16.8097C39.0811 16.9133 38.4652 16.0784 38.4623 14.4973C38.4504 10.4034 38.4504 6.30749 38.4623 2.20965C38.4623 0.767704 39.1018 -0.0110047 40.2388 -0.00212211C41.3758 0.0067605 42.0153 0.800274 42.0153 2.23926C42.0301 4.31187 42.0153 6.38448 42.0153 8.45709Z" fill="white"/>
<path d="M62.9726 8.74137C62.641 9.46382 62.4811 9.92572 62.2354 10.3343C60.5259 13.1945 58.8096 16.0468 57.0864 18.8912C56.3551 20.1022 55.2684 20.5197 54.2825 19.9927C53.2965 19.4656 53.0981 18.2843 53.8087 17.0673C55.5852 14.0769 57.347 11.0745 59.2715 8.18473C59.6505 7.61328 60.752 7.21356 61.4714 7.27278C62.0103 7.31423 62.4811 8.22322 62.9726 8.74137Z" fill="white"/>
<path d="M25.4495 20.4722C24.8337 19.9718 24.1882 19.6609 23.8566 19.1457C21.9794 16.2233 20.1585 13.2654 18.3582 10.2957C17.6062 9.04915 17.8194 7.98324 18.832 7.33481C19.7765 6.74264 20.724 7.0861 21.4968 8.3119C23.3088 11.2195 25.1683 14.0974 26.8856 17.0583C27.2409 17.6682 27.2438 18.6453 27.0484 19.353C26.9181 19.7971 26.1098 20.0399 25.4495 20.4722Z" fill="white"/>
<path d="M40.4166 38.6935C44.8017 38.7971 48.029 42.3472 47.9373 46.9661C47.8543 51.1114 44.2095 54.5934 40.0643 54.472C35.8717 54.3535 32.748 50.7235 32.8368 46.0779C32.8457 45.0941 33.0492 44.1219 33.4357 43.2172C33.8221 42.3125 34.3839 41.4933 35.0886 40.8068C35.7932 40.1203 36.6268 39.5801 37.5413 39.2174C38.4558 38.8547 39.433 38.6766 40.4166 38.6935Z" fill="white"/>
</svg>
