<svg width="70" height="70" viewBox="0 0 70 70" fill="none" xmlns="http://www.w3.org/2000/svg">
<path d="M53.5063 32.1482C52.1394 31.9067 50.7724 31.6288 49.4055 31.4511C49.2049 31.4341 49.0029 31.4577 48.8115 31.5203C48.6201 31.5829 48.4433 31.6833 48.2915 31.8156C42.6825 37.4245 37.0902 43.0502 31.5147 48.6926C29.4848 50.743 27.4868 52.8207 25.4205 54.8324C25.1839 55.0369 24.9988 55.2942 24.88 55.5835C24.7613 55.8728 24.7123 56.186 24.737 56.4977C24.9056 62.3619 21.7275 67.3489 16.679 69.2238C8.98772 72.0807 1.02536 66.6973 0.836271 58.5185C0.741685 55.5247 1.7333 52.5978 3.62806 50.2781C5.52283 47.9583 8.19282 46.4023 11.1452 45.8972C11.2182 45.8713 11.2956 45.8598 11.373 45.863C13.2799 46.3187 14.3165 45.0429 15.4738 43.881C22.9752 36.4115 30.5001 28.9625 38.0486 21.534C38.5726 21.0214 38.7116 20.6227 38.4724 19.88C35.6086 10.9335 41.188 1.832 50.4877 0.250924C52.7476 -0.134094 55.0008 -0.145485 57.1947 0.681506C58.6163 1.21461 58.7758 1.71126 57.7597 2.76379C55.338 5.26983 52.9139 7.78953 50.4193 10.2272C49.5991 11.0292 49.385 11.8858 49.6515 12.8927C50.0297 14.3098 50.5036 15.6995 50.9182 17.1051C51.1939 18.0369 51.8295 18.5222 52.7408 18.7568C54.1989 19.1305 55.6592 19.5109 57.0945 19.962C58.0058 20.2468 58.6892 20.0577 59.3385 19.3856C61.8947 16.7908 64.4827 14.2232 67.0594 11.6397C68.0003 10.7011 68.342 10.7284 68.7384 11.9997C70.3332 17.0664 69.3148 21.714 66.2096 25.8968C63.0816 30.1434 58.7598 32.0274 53.5063 32.1482ZM11.7945 64.2915C13.4576 63.7835 15.1981 63.3027 16.8931 62.6967C17.2622 62.5646 17.5766 62.0133 17.7224 61.5804C18.1621 60.2135 18.538 58.8466 18.8752 57.45C19.0092 56.9552 18.9943 56.4319 18.8322 55.9455C18.6701 55.4592 18.368 55.0316 17.9639 54.7162C16.9291 53.8302 15.8311 53.0208 14.6787 52.2944C14.1068 51.9817 13.4478 51.8664 12.8037 51.9664C11.5775 52.1564 10.3767 52.485 9.22465 52.946C8.56729 53.2364 8.03668 53.7541 7.73014 54.4041C7.23436 55.7033 6.85321 57.0435 6.59104 58.4091C6.46402 58.9922 6.514 59.5998 6.73456 60.1543C7.6618 62.2046 9.596 63.1569 11.4003 64.2323C11.5281 64.2712 11.6609 64.2911 11.7945 64.2915ZM21.0577 45.838C21.5954 46.4303 22.0054 47.1229 22.6114 47.4942C23.4043 47.9772 24.2062 47.64 24.8623 46.993C26.9833 44.8766 29.1157 42.7738 31.2208 40.6459C33.9957 37.8437 36.7569 35.0294 39.5044 32.2029C40.5091 31.1663 40.5364 30.0363 39.6935 29.207C38.8505 28.3777 37.6932 28.421 36.6908 29.4348C31.7638 34.371 26.8459 39.3177 21.9371 44.2751C21.5976 44.6055 21.4404 45.1317 21.0577 45.8357V45.838Z" fill="white"/>
</svg>
