<svg width="33" height="70" viewBox="0 0 33 70" fill="none" xmlns="http://www.w3.org/2000/svg">
<path d="M26.3558 0.250942C27.9688 0.166781 29.4801 0.0969884 30.9893 0.000511102C31.685 -0.0425958 31.7887 0.435685 31.9474 0.948862C34.0262 7.67559 32.0023 14.7328 26.4432 19.0127C22.5785 21.9809 18.4677 24.6207 14.4728 27.4124C11.9303 29.188 9.59111 31.1524 7.72385 33.7019C5.16501 37.1997 5.42334 43.0027 8.75918 45.9237C10.6447 47.5659 12.6015 49.1424 14.5237 50.7496C14.6193 50.8317 14.7006 50.9344 14.8349 51.076C13.4558 52.01 12.1215 52.9234 10.7668 53.8061C10.6558 53.8584 10.5342 53.8839 10.4117 53.8807C10.2892 53.8775 10.1692 53.8457 10.061 53.7876C6.07627 51.0555 2.60211 47.8882 1.38778 42.9083C0.167348 37.9038 1.43049 33.4658 4.58327 29.5308C7.96183 25.3166 12.4754 22.5167 16.932 19.6778C20.1458 17.6251 23.3291 15.5128 25.6479 12.4112C28.2922 8.85795 28.6237 5.00296 26.6365 0.989917C26.5307 0.784646 26.4717 0.565006 26.3558 0.250942Z" fill="white"/>
<path d="M18.7281 27.0963C20.1214 26.1274 21.3724 25.2242 22.6782 24.3785C22.8083 24.3217 22.9497 24.2968 23.0911 24.3057C23.2325 24.3147 23.3698 24.3572 23.4918 24.4298C26.905 26.9587 30.072 29.7545 31.6402 33.8723C33.8777 39.7307 32.6471 44.9569 28.4915 49.5488C25.6439 52.6853 22.0761 54.8674 18.604 57.1787C16.1815 58.7922 13.7223 60.3666 11.3506 62.0457C8.85684 63.8069 6.90009 66.0321 6.10477 69.0947C5.95018 69.69 5.65118 69.8316 5.10198 69.8193C3.75748 69.7926 2.4089 69.7926 0.948453 69.7926C0.964725 68.1689 1.45493 66.7669 2.07125 65.4265C3.6334 62.0478 6.21665 59.5291 9.18229 57.4435C12.6687 54.9803 16.3381 52.7941 19.796 50.3022C21.83 48.8427 23.7929 47.2046 25.4262 45.3264C29.0387 41.1697 28.1356 34.7508 23.6302 31.0601C22.0619 29.7751 20.4753 28.5085 18.7281 27.0963Z" fill="white"/>
<path d="M7.16655 0.291987C6.16783 2.17637 5.6044 3.99918 5.63287 6.03957C5.6354 7.40438 5.90639 8.7551 6.43014 10.0134C6.95388 11.2717 7.71996 12.4126 8.68395 13.3698C10.4332 15.1515 12.4429 16.6747 14.3406 18.3086C14.4952 18.4068 14.6587 18.49 14.8288 18.557C13.3562 19.6059 12.0747 20.5276 10.7546 21.4021C10.609 21.4615 10.4516 21.4856 10.2951 21.4724C10.1386 21.4592 9.98734 21.4091 9.85353 21.3261C5.7183 18.247 2.26855 14.6507 1.10711 9.36496C0.456214 6.46859 0.726742 3.61532 1.60138 0.821586C1.70105 0.495205 2.18109 0.0785049 2.4862 0.0785049C3.99953 0.0785049 5.5088 0.205773 7.16655 0.291987Z" fill="white"/>
<path d="M27.977 69.9978C27.8936 69.9301 27.5173 69.7782 27.4563 69.5442C26.3335 65.2006 23.0668 62.7456 19.6394 60.426C18.6081 59.7281 18.6 59.6255 19.6231 58.905C20.5364 58.2604 21.4334 57.5892 22.3894 57.0206C22.6945 56.8379 23.2885 56.7578 23.5407 56.9344C27.3444 59.6029 30.6599 62.6819 31.9759 67.4032C32.7183 70.0717 32.4092 69.8213 30.2429 69.8172C29.5676 69.8151 28.8943 69.9177 27.977 69.9978Z" fill="white"/>
<path d="M7.40051 6.29617C7.60391 5.20413 7.75443 4.10388 8.027 3.03236C8.08802 2.79425 8.55585 2.50892 8.84062 2.50276C14.0478 2.40013 19.257 2.34471 24.4662 2.25644C24.991 2.25644 25.2798 2.4145 25.3958 2.93589C25.5788 3.75697 25.8188 4.57805 25.9877 5.39914C26.1097 5.99648 25.9165 6.37007 25.2046 6.37212C19.4543 6.3906 13.702 6.4296 7.9497 6.45423C7.76179 6.42052 7.57777 6.36756 7.40051 6.29617Z" fill="white"/>
<path d="M25.9937 39.4536C25.5686 40.7304 25.2086 41.8758 24.7875 42.9965C24.7245 43.1628 24.3807 43.3065 24.1489 43.3106C19.3465 43.3989 14.5441 43.4789 9.74167 43.5159C9.55828 43.4968 9.3819 43.4345 9.22679 43.3339C9.07167 43.2334 8.94216 43.0974 8.84872 42.937C8.49886 42.1016 8.31173 41.2004 8.01476 40.3424C7.76457 39.6219 8.029 39.4392 8.71447 39.4433C11.7249 39.4536 14.7353 39.4433 17.7477 39.4207C19.9465 39.4207 22.1433 39.3879 24.3421 39.3817C24.8099 39.3776 25.2757 39.4125 25.9937 39.4536Z" fill="white"/>
<path d="M8.7755 9.61129H24.9238C24.3401 11.2904 23.1013 12.366 21.8992 13.4129C21.5636 13.7023 20.8659 13.6038 20.333 13.6182C17.6582 13.6798 14.9834 13.7372 12.3086 13.7413C11.8875 13.7263 11.4874 13.5519 11.1879 13.2528C10.2543 12.2264 9.39995 11.1057 8.51514 10.0239L8.7755 9.61129Z" fill="white"/>
<path d="M8.41339 36.1754C9.40601 34.8925 10.2644 33.6875 11.2428 32.5934C11.495 32.3102 12.1235 32.2979 12.5832 32.2896C15.4919 32.2322 18.4026 32.1932 21.3133 32.2014C21.7376 32.2141 22.1414 32.3879 22.4443 32.6879C23.3616 33.7142 24.1976 34.8001 25.0641 35.8655L24.8892 36.1754H8.41339Z" fill="white"/>
<path d="M24.6858 68.2285H8.52528C9.11719 66.6397 10.3824 65.5456 11.4889 64.3386C11.5926 64.2257 11.8754 64.2647 12.0767 64.2606C14.9244 64.1888 17.7619 64.0923 20.6055 64.082C21.12 64.106 21.6093 64.3133 21.9866 64.667C23.0037 65.6667 23.9495 66.7649 24.9197 67.8241L24.6858 68.2285Z" fill="white"/>
</svg>
